<svg width="256" height="256" viewBox="0 0 256 256" fill="none" xmlns="http://www.w3.org/2000/svg">
<path d="M0 128C0 118.249 7.90449 110.345 17.6552 110.345C27.4059 110.345 35.3103 118.249 35.3103 128C35.3103 137.751 27.4059 145.655 17.6552 145.655C7.90449 145.655 0 137.751 0 128Z" fill="#073B4C"/>
<path d="M256 128C256 118.249 248.096 110.345 238.345 110.345C228.594 110.345 220.69 118.249 220.69 128C220.69 137.751 228.594 145.655 238.345 145.655C248.096 145.655 256 137.751 256 128Z" fill="#073B4C"/>
<path d="M110.345 17.6552C110.345 7.90449 118.249 0 128 0C137.751 0 145.655 7.90449 145.655 17.6552C145.655 27.4059 137.751 35.3103 128 35.3103C118.249 35.3103 110.345 27.4059 110.345 17.6552Z" fill="#073B4C"/>
<path d="M17.6552 177.103C17.6552 167.353 25.5597 159.448 35.3103 159.448C45.061 159.448 52.9655 167.353 52.9655 177.103C52.9655 186.854 45.061 194.759 35.3103 194.759C25.5597 194.759 17.6552 186.854 17.6552 177.103Z" fill="#073B4C"/>
<path d="M238.345 177.103C238.345 167.353 230.44 159.448 220.69 159.448C210.939 159.448 203.034 167.353 203.034 177.103C203.034 186.854 210.939 194.759 220.69 194.759C230.44 194.759 238.345 186.854 238.345 177.103Z" fill="#073B4C"/>
<path d="M238.345 78.8966C238.345 88.6472 230.44 96.5517 220.69 96.5517C210.939 96.5517 203.034 88.6472 203.034 78.8966C203.034 69.1459 210.939 61.2414 220.69 61.2414C230.44 61.2414 238.345 69.1459 238.345 78.8966Z" fill="#073B4C"/>
<path d="M17.6552 78.8966C17.6552 88.6472 25.5597 96.5517 35.3103 96.5517C45.061 96.5517 52.9655 88.6472 52.9655 78.8966C52.9655 69.1459 45.061 61.2414 35.3103 61.2414C25.5597 61.2414 17.6552 69.1459 17.6552 78.8966Z" fill="#073B4C"/>
<path d="M61.2414 220.69C61.2414 210.939 69.1459 203.034 78.8966 203.034C88.6472 203.034 96.5517 210.939 96.5517 220.69C96.5517 230.44 88.6472 238.345 78.8966 238.345C69.1459 238.345 61.2414 230.44 61.2414 220.69Z" fill="#073B4C"/>
<path d="M194.759 220.69C194.759 210.939 186.854 203.034 177.103 203.034C167.353 203.034 159.448 210.939 159.448 220.69C159.448 230.44 167.353 238.345 177.103 238.345C186.854 238.345 194.759 230.44 194.759 220.69Z" fill="#073B4C"/>
<path d="M194.759 35.3103C194.759 45.061 186.854 52.9655 177.103 52.9655C167.353 52.9655 159.448 45.061 159.448 35.3103C159.448 25.5597 167.353 17.6552 177.103 17.6552C186.854 17.6552 194.759 25.5597 194.759 35.3103Z" fill="#073B4C"/>
<path d="M61.2414 35.3103C61.2414 45.061 69.1459 52.9655 78.8966 52.9655C88.6472 52.9655 96.5517 45.061 96.5517 35.3103C96.5517 25.5597 88.6472 17.6552 78.8966 17.6552C69.1459 17.6552 61.2414 25.5597 61.2414 35.3103Z" fill="#073B4C"/>
<path d="M145.655 238.345C145.655 228.594 137.751 220.69 128 220.69C118.249 220.69 110.345 228.594 110.345 238.345C110.345 248.096 118.249 256 128 256C137.751 256 145.655 248.096 145.655 238.345Z" fill="#073B4C"/>
</svg>
