<svg width="256" height="256" viewBox="0 0 256 256" fill="none" xmlns="http://www.w3.org/2000/svg">
<rect width="32" height="32" rx="16" transform="matrix(-1 0 0 1 32 112)" fill="#073B4C" fill-opacity="0.875"/>
<rect width="32" height="32" rx="16" transform="matrix(-1 0 0 1 256 112)" fill="#073B4C" fill-opacity="0.375"/>
<rect width="32" height="32" rx="16" transform="matrix(-1 0 0 1 65 191)" fill="#073B4C" fill-opacity="0.75"/>
<rect width="32" height="32" rx="16" transform="matrix(-1 0 0 1 65 33)" fill="#073B4C"/>
<rect width="32" height="32" rx="16" transform="matrix(-1 0 0 1 223 33)" fill="#073B4C" fill-opacity="0.25"/>
<rect width="32" height="32" rx="16" transform="matrix(-1 0 0 1 223 191)" fill="#073B4C" fill-opacity="0.5"/>
<rect width="32" height="32" rx="16" transform="matrix(-1 0 0 1 146 0)" fill="#073B4C" fill-opacity="0.125"/>
<rect width="32" height="32" rx="16" transform="matrix(-1 0 0 1 146 224)" fill="#073B4C" fill-opacity="0.625"/>
</svg>
